<?xml version="1.0" standalone="no"?>
<!DOCTYPE svg PUBLIC "-//W3C//DTD SVG 20010904//EN"
 "http://www.w3.org/TR/2001/REC-SVG-20010904/DTD/svg10.dtd">
<svg version="1.0" xmlns="http://www.w3.org/2000/svg"
 width="512.000000pt" height="512.000000pt" viewBox="0 0 512.000000 512.000000"
 preserveAspectRatio="xMidYMid meet">
<metadata>
Created by potrace 1.14, written by Peter Selinger 2001-2017
</metadata>
<g transform="translate(0.000000,512.000000) scale(0.100000,-0.100000)"
fill="#000000" stroke="none">
<path d="M3358 3675 c-2 -2 -28 -5 -58 -8 -83 -9 -424 -88 -438 -102 -5 -4 88
-158 256 -425 327 -520 416 -677 603 -1064 183 -381 412 -572 734 -614 97 -13
274 -6 369 14 12 3 37 7 57 10 81 12 134 31 133 47 -1 8 -37 75 -81 149 -44
73 -133 223 -198 333 -126 213 -393 662 -588 990 -152 255 -253 406 -324 484
-86 95 -195 162 -291 177 -37 6 -170 13 -174 9z"/>
<path d="M1749 3666 c-2 -2 -31 -6 -64 -10 -70 -7 -93 -11 -195 -32 -93 -20
-93 -20 -76 -47 7 -12 80 -134 161 -272 82 -137 168 -283 193 -324 24 -41 52
-88 62 -105 9 -17 46 -78 80 -136 35 -58 68 -114 74 -125 58 -104 436 -734
485 -810 67 -103 98 -143 172 -217 93 -93 179 -129 313 -130 67 -1 181 8 229
18 12 2 38 6 57 9 28 4 119 21 310 60 8 2 18 4 22 4 4 1 -26 55 -65 121 -40
66 -77 128 -82 137 -6 10 -17 29 -26 43 -96 150 -359 571 -385 619 -11 18 -24
41 -29 50 -45 71 -180 328 -248 472 -149 313 -282 476 -469 578 -60 32 -184
74 -253 86 -43 7 -260 16 -266 11z"/>
<path d="M1088 3173 c-25 -43 -101 -172 -169 -288 -253 -434 -293 -502 -330
-563 -22 -35 -39 -65 -39 -68 0 -2 -17 -33 -38 -67 -78 -126 -399 -677 -408
-700 -5 -13 64 -15 623 -13 571 1 634 3 693 19 196 55 327 168 369 318 25 91
19 214 -15 317 -47 138 -240 476 -631 1110 -5 9 -23 -12 -55 -65z"/>
</g>
</svg>
