<?xml version="1.0" encoding="utf-8"?>
<!-- Generator: Adobe Illustrator 25.2.1, SVG Export Plug-In . SVG Version: 6.00 Build 0)  -->
<svg version="1.1" id="Layer_1" xmlns="http://www.w3.org/2000/svg" xmlns:xlink="http://www.w3.org/1999/xlink" x="0px" y="0px"
	 viewBox="0 0 51.7 23.3" style="enable-background:new 0 0 51.7 23.3;" xml:space="preserve">
<g transform="translate(-866.801 -539.144)">
	<path d="M918.5,561.7c-6.9,1.9-11.1,0-13.9-6.3c-2.4-5.3-5.8-10-8.8-15.1c7.5-2.2,9-1.6,12.6,4.4
		C911.7,550.2,915,555.8,918.5,561.7z"/>
	<path d="M880.5,539.9c6.9-1.8,11-0.1,13.8,6c2.4,5.4,6,10.3,9,15.5c-8.8,1.8-9,1.7-13.2-5.3C887,550.9,883.9,545.6,880.5,539.9z"/>
	<path d="M877.7,543.6c2.4,4,4.5,7.2,6.2,10.6c2.1,4.2,0.1,7.6-4.6,8c-0.7,0.1-1.3,0-2,0c-3.1,0-6.3,0-10.5,0L877.7,543.6z"/>
</g>
</svg>
